<svg height="512pt" viewBox="-31 0 512 512" width="512pt" xmlns="http://www.w3.org/2000/svg"><path d="m450 497v-31c0-8.289062-6.710938-15-15-15h-420c-8.289062 0-15 6.710938-15 15v31c0 8.289062 6.710938 15 15 15h420c8.289062 0 15-6.710938 15-15zm0 0"/><path d="m0 226c0 8.289062 6.710938 15 15 15h420c8.289062 0 15-6.710938 15-15v-30c0-8.289062-6.710938-15-15-15h-420c-8.289062 0-15 6.710938-15 15zm0 0"/><path d="m380.726562 271h-131.453124l65.726562 131.453125zm0 0"/><path d="m225 289.546875-65.726562 131.453125h131.453124zm0 0"/><path d="m200.726562 271h-131.453124l65.726562 131.453125zm0 0"/><path d="m30 271v150h80.726562l-75-150zm0 0"/><path d="m420 271h-5.726562l-75 150h80.726562zm0 0"/><path d="m450 136c0-24.8125-20.1875-45-45-45-19.53125 0-36.023438 12.578125-42.238281 30h-317.761719c-8.289062 0-15 6.710938-15 15s6.710938 15 15 15h317.761719c6.214843 17.421875 22.707031 30 42.238281 30 24.8125 0 45-20.1875 45-45zm0 0"/><path d="m45 0c-24.8125 0-45 21.1875-45 46s20.1875 45 45 45c19.53125 0 36.023438-12.578125 42.238281-30h317.761719c8.289062 0 15-6.710938 15-15s-6.710938-15-15-15h-317.761719c-6.214843-17.421875-22.707031-31-42.238281-31zm0 0"/></svg>